<svg xmlns="http://www.w3.org/2000/svg" xmlns:xlink="http://www.w3.org/1999/xlink" viewBox="0 0 462.77 140"><defs><style>.cls-1{fill:url(#linear-gradient);}.cls-2{clip-path:url(#clip-path);}.cls-3{fill:url(#linear-gradient-4);}.cls-4{fill:url(#linear-gradient-5);}.cls-5{fill:url(#linear-gradient-6);}.cls-6{fill:url(#linear-gradient-7);}.cls-7{fill:url(#linear-gradient-8);}.cls-8{fill:url(#linear-gradient-9);}.cls-9{fill:url(#linear-gradient-10);}.cls-10{fill:url(#linear-gradient-11);}.cls-11{fill:url(#linear-gradient-12);}.cls-12{fill:url(#linear-gradient-13);}.cls-13{fill:url(#linear-gradient-14);}.cls-14{fill:url(#linear-gradient-15);}.cls-15{fill:url(#linear-gradient-16);}.cls-16{fill:url(#linear-gradient-17);}.cls-17{fill:url(#linear-gradient-18);}.cls-18{fill:url(#linear-gradient-19);}.cls-19{fill:url(#linear-gradient-20);}.cls-20{fill:url(#linear-gradient-21);}.cls-21{fill:url(#linear-gradient-22);}.cls-22{fill:url(#linear-gradient-23);}.cls-23{fill:url(#linear-gradient-24);}.cls-24{fill:url(#linear-gradient-25);}.cls-25{fill:url(#linear-gradient-26);}.cls-26{fill:url(#linear-gradient-27);}.cls-27{fill:url(#linear-gradient-28);}.cls-28{fill:url(#linear-gradient-29);}.cls-29{fill:url(#linear-gradient-30);}.cls-30{fill:url(#linear-gradient-31);}.cls-31{fill:url(#linear-gradient-32);}.cls-32{fill:url(#linear-gradient-33);}.cls-33{fill:url(#linear-gradient-34);}.cls-34{fill:url(#linear-gradient-35);}.cls-35{fill:url(#linear-gradient-36);}.cls-36{fill:url(#linear-gradient-37);}.cls-37{fill:url(#linear-gradient-38);}</style><linearGradient id="linear-gradient" x1="22.85" y1="117.85" x2="119.6" y2="19.68" gradientUnits="userSpaceOnUse"><stop offset="0" stop-color="#015c7b"/><stop offset="1" stop-color="#013c4f"/></linearGradient><clipPath id="clip-path"><path class="cls-1" d="M70,5.36A64.64,64.64,0,1,0,134.64,70,64.64,64.64,0,0,0,70,5.36Z"/></clipPath><linearGradient id="linear-gradient-4" x1="14.31" y1="127.47" x2="125.24" y2="13" gradientUnits="userSpaceOnUse"><stop offset="0" stop-color="#008da8"/><stop offset="1" stop-color="#006f8d"/></linearGradient><linearGradient id="linear-gradient-5" x1="8.73" y1="81.08" x2="75.36" y2="40.68" gradientUnits="userSpaceOnUse"><stop offset="0" stop-color="#defffd"/><stop offset="0.22" stop-color="#dafffd"/><stop offset="0.42" stop-color="#cffffd"/><stop offset="0.62" stop-color="#bcfffd"/><stop offset="0.82" stop-color="#a1fffd"/><stop offset="1" stop-color="#82fffd"/></linearGradient><linearGradient id="linear-gradient-6" x1="14.59" y1="90.74" x2="81.22" y2="50.34" xlink:href="#linear-gradient-5"/><linearGradient id="linear-gradient-7" x1="8.9" y1="81.36" x2="75.53" y2="40.96" xlink:href="#linear-gradient-5"/><linearGradient id="linear-gradient-8" x1="9.68" y1="82.64" x2="76.3" y2="42.24" xlink:href="#linear-gradient-5"/><linearGradient id="linear-gradient-9" x1="12.86" y1="87.89" x2="79.49" y2="47.49" xlink:href="#linear-gradient-5"/><linearGradient id="linear-gradient-10" x1="12.99" y1="88.11" x2="79.62" y2="47.71" xlink:href="#linear-gradient-5"/><linearGradient id="linear-gradient-11" x1="15.57" y1="92.36" x2="82.2" y2="51.96" xlink:href="#linear-gradient-5"/><linearGradient id="linear-gradient-12" x1="17.01" y1="94.73" x2="83.64" y2="54.33" xlink:href="#linear-gradient-5"/><linearGradient id="linear-gradient-13" x1="21.2" y1="101.65" x2="87.83" y2="61.25" xlink:href="#linear-gradient-5"/><linearGradient id="linear-gradient-14" x1="26.12" y1="109.76" x2="92.75" y2="69.35" xlink:href="#linear-gradient-5"/><linearGradient id="linear-gradient-15" x1="26.87" y1="110.99" x2="93.49" y2="70.58" xlink:href="#linear-gradient-5"/><linearGradient id="linear-gradient-16" x1="30.37" y1="116.76" x2="97" y2="76.36" xlink:href="#linear-gradient-5"/><linearGradient id="linear-gradient-17" x1="32.73" y1="120.65" x2="99.36" y2="80.25" xlink:href="#linear-gradient-5"/><linearGradient id="linear-gradient-18" x1="37.53" y1="128.58" x2="104.16" y2="88.18" xlink:href="#linear-gradient-5"/><linearGradient id="linear-gradient-19" x1="38.35" y1="129.92" x2="104.97" y2="89.52" xlink:href="#linear-gradient-5"/><linearGradient id="linear-gradient-20" x1="64.65" y1="78.75" x2="77.68" y2="52.92" gradientUnits="userSpaceOnUse"><stop offset="0" stop-color="#b71d50"/><stop offset="0.48" stop-color="#8e163c"/><stop offset="1" stop-color="#640e27"/></linearGradient><linearGradient id="linear-gradient-21" x1="219.17" y1="34.94" x2="602.01" y2="-80.94" xlink:href="#linear-gradient-4"/><linearGradient id="linear-gradient-22" x1="222.4" y1="45.59" x2="605.23" y2="-70.29" xlink:href="#linear-gradient-4"/><linearGradient id="linear-gradient-23" x1="226.01" y1="57.51" x2="608.84" y2="-58.37" xlink:href="#linear-gradient-4"/><linearGradient id="linear-gradient-24" x1="228.25" y1="64.93" x2="611.08" y2="-50.95" xlink:href="#linear-gradient-4"/><linearGradient id="linear-gradient-25" x1="230.43" y1="72.13" x2="613.26" y2="-43.75" xlink:href="#linear-gradient-4"/><linearGradient id="linear-gradient-26" x1="232.61" y1="79.33" x2="615.44" y2="-36.55" xlink:href="#linear-gradient-4"/><linearGradient id="linear-gradient-27" x1="235.21" y1="87.93" x2="618.05" y2="-27.94" xlink:href="#linear-gradient-4"/><linearGradient id="linear-gradient-28" x1="226.8" y1="60.13" x2="609.63" y2="-55.74" xlink:href="#linear-gradient-4"/><linearGradient id="linear-gradient-29" x1="238.34" y1="98.27" x2="621.18" y2="-17.61" xlink:href="#linear-gradient-4"/><linearGradient id="linear-gradient-30" x1="241.15" y1="107.56" x2="623.99" y2="-8.32" xlink:href="#linear-gradient-4"/><linearGradient id="linear-gradient-31" x1="233" y1="80.6" x2="615.83" y2="-35.27" xlink:href="#linear-gradient-4"/><linearGradient id="linear-gradient-32" x1="236.25" y1="91.35" x2="619.08" y2="-24.52" xlink:href="#linear-gradient-4"/><linearGradient id="linear-gradient-33" x1="239.73" y1="102.86" x2="622.56" y2="-13.02" xlink:href="#linear-gradient-4"/><linearGradient id="linear-gradient-34" x1="241.71" y1="109.39" x2="624.54" y2="-6.49" xlink:href="#linear-gradient-4"/><linearGradient id="linear-gradient-35" x1="244.16" y1="117.49" x2="626.99" y2="1.62" xlink:href="#linear-gradient-4"/><linearGradient id="linear-gradient-36" x1="248.36" y1="131.35" x2="631.19" y2="15.47" xlink:href="#linear-gradient-4"/><linearGradient id="linear-gradient-37" x1="251.3" y1="141.08" x2="634.13" y2="25.2" xlink:href="#linear-gradient-4"/><linearGradient id="linear-gradient-38" x1="254.72" y1="152.38" x2="637.55" y2="36.51" xlink:href="#linear-gradient-4"/></defs><title>Asset 2</title><g id="Layer_2" data-name="Layer 2"><g id="Layer_1-2" data-name="Layer 1"><path class="cls-1" d="M70,5.36A64.64,64.64,0,1,0,134.64,70,64.64,64.64,0,0,0,70,5.36Z"/><g class="cls-2"><path class="cls-1" d="M70,5.36A64.64,64.64,0,1,0,134.64,70,64.64,64.64,0,0,0,70,5.36Z"/></g><path class="cls-3" d="M70,140A70,70,0,0,1,42.75,5.5a70,70,0,0,1,54.5,129A69.58,69.58,0,0,1,70,140ZM70,3.56A66.44,66.44,0,1,0,136.44,70,66.51,66.51,0,0,0,70,3.56Z"/><path class="cls-4" d="M17.22,84a2.3,2.3,0,1,1-4.59,0V70.62a2.3,2.3,0,1,1,4.59,0Z"/><path class="cls-5" d="M76.85,49.18a2.3,2.3,0,0,1,4.59,0V54a2.3,2.3,0,1,1-4.59,0Z"/><path class="cls-6" d="M67.75,43.06a2.3,2.3,0,1,1,4.59,0v2.46a2.3,2.3,0,0,1-4.59,0Z"/><path class="cls-7" d="M58.56,49.18a2.3,2.3,0,0,1,4.59,0V54a2.3,2.3,0,1,1-4.59,0Z"/><path class="cls-8" d="M26.41,88.45a2.3,2.3,0,0,1-4.59,0V73.68a2.3,2.3,0,0,1,4.59,0Z"/><path class="cls-9" d="M35.59,84A2.3,2.3,0,1,1,31,84V67.56a2.3,2.3,0,1,1,4.59,0Z"/><path class="cls-10" d="M44.78,90.66a2.3,2.3,0,0,1-4.59,0V61.43a2.3,2.3,0,0,1,4.59,0Z"/><path class="cls-11" d="M54,84a2.3,2.3,0,1,1-4.6,0V63.4a2.3,2.3,0,0,1,4.6,0Z"/><path class="cls-12" d="M63.15,86.24a2.3,2.3,0,1,1-4.59,0V69a2.3,2.3,0,1,1,4.59,0Z"/><path class="cls-13" d="M81.44,86.24a2.3,2.3,0,1,1-4.59,0V69a2.3,2.3,0,1,1,4.59,0Z"/><path class="cls-14" d="M90.63,84A2.3,2.3,0,1,1,86,84V63.4a2.3,2.3,0,1,1,4.6,0Z"/><path class="cls-15" d="M99.81,90.66a2.3,2.3,0,0,1-4.59,0V61.43a2.3,2.3,0,0,1,4.59,0Z"/><path class="cls-16" d="M109,84a2.3,2.3,0,1,1-4.59,0V67.56a2.3,2.3,0,1,1,4.59,0Z"/><path class="cls-17" d="M118.18,88.45a2.3,2.3,0,0,1-4.59,0V73.68a2.3,2.3,0,0,1,4.59,0Z"/><path class="cls-18" d="M125.07,86.33a2.3,2.3,0,0,1-2.29-2.3V70.62a2.3,2.3,0,1,1,4.59,0V84A2.3,2.3,0,0,1,125.07,86.33Z"/><path class="cls-19" d="M79.23,64.44H73V92.86a3,3,0,0,1-6,0V64.44H60.86a3,3,0,0,1,0-5.94h6.21V52.4a3,3,0,0,1,6,0v6.1h6.21a3,3,0,0,1,0,5.94Z"/><path class="cls-20" d="M173.75,62.44a18.49,18.49,0,0,1-7.22-6.92,19.24,19.24,0,0,1-2.61-10,19.07,19.07,0,0,1,2.63-10,18.71,18.71,0,0,1,7.25-6.92,21.24,21.24,0,0,1,10.32-2.5,21.64,21.64,0,0,1,8.45,1.61A17.28,17.28,0,0,1,199,32.46l-4.53,4.26a13.17,13.17,0,0,0-10.07-4.42,14,14,0,0,0-6.95,1.7,12.12,12.12,0,0,0-4.79,4.71,14.39,14.39,0,0,0,0,13.68,12.21,12.21,0,0,0,4.79,4.72,14.13,14.13,0,0,0,6.95,1.69,13.11,13.11,0,0,0,10.07-4.47L199,58.64a17.27,17.27,0,0,1-6.49,4.69,21.88,21.88,0,0,1-8.49,1.61A21.2,21.2,0,0,1,173.75,62.44Z"/><path class="cls-21" d="M239.28,26.7V64.4h-7V48.24h-19.5V64.4h-7V26.7h7V42.26h19.5V26.7Z"/><path class="cls-22" d="M274.07,64.4l-7.7-11a12.85,12.85,0,0,1-1.45.06h-8.51v11h-7V26.7h15.52a21.06,21.06,0,0,1,8.54,1.61A12.38,12.38,0,0,1,279,33,13,13,0,0,1,281,40.11a12.81,12.81,0,0,1-2.07,7.33,12.37,12.37,0,0,1-6,4.57l8.68,12.39Zm-2.53-29.84c-1.58-1.29-3.89-1.94-7-1.94h-8.18v15h8.18c3.06,0,5.37-.65,7-2a6.85,6.85,0,0,0,2.37-5.58A6.75,6.75,0,0,0,271.54,34.56Z"/><path class="cls-23" d="M288.78,26.7h7V64.4h-7Z"/><path class="cls-24" d="M309.22,63.7a17.46,17.46,0,0,1-6.43-3.28L305.21,55a19.06,19.06,0,0,0,5.68,3,20.76,20.76,0,0,0,6.76,1.16c2.8,0,4.9-.45,6.28-1.35A4.08,4.08,0,0,0,326,54.22a3.41,3.41,0,0,0-1.16-2.66,8.22,8.22,0,0,0-2.93-1.65c-1.19-.39-2.8-.84-4.85-1.34a56.82,56.82,0,0,1-7-2,11.48,11.48,0,0,1-4.57-3.2,8.64,8.64,0,0,1-1.92-5.9,10.09,10.09,0,0,1,1.7-5.69,11.47,11.47,0,0,1,5.12-4.06,20.63,20.63,0,0,1,8.37-1.51,27.3,27.3,0,0,1,6.79.86,18.63,18.63,0,0,1,5.77,2.48l-2.21,5.44A21.89,21.89,0,0,0,324,32.73a19.49,19.49,0,0,0-5.23-.75c-2.77,0-4.82.46-6.17,1.4a4.32,4.32,0,0,0-2,3.71,3.36,3.36,0,0,0,1.16,2.64,8.29,8.29,0,0,0,2.94,1.62c1.18.39,2.8.84,4.84,1.35a50,50,0,0,1,6.9,2,11.85,11.85,0,0,1,4.61,3.2,8.49,8.49,0,0,1,1.91,5.82,9.92,9.92,0,0,1-1.7,5.65,11.52,11.52,0,0,1-5.14,4,20.87,20.87,0,0,1-8.41,1.51A28.62,28.62,0,0,1,309.22,63.7Z"/><path class="cls-25" d="M347,32.62h-12.5V26.7h32v5.92H354V64.4h-7Z"/><path class="cls-26" d="M371.74,26.7h7V64.4h-7Z"/><path class="cls-27" d="M347,15.08h7V30.33h-7Z"/><path class="cls-28" d="M413.38,55.68H394.52L390.8,64.4h-7.21l17-37.7h6.9l17,37.7h-7.32Zm-2.32-5.5L404,33.7l-7.06,16.48Z"/><path class="cls-29" d="M462.77,26.7V64.4H457l-20.8-25.53V64.4h-6.94V26.7H435l20.79,25.53V26.7Z"/><path class="cls-30" d="M196.4,113.34l-.05-23.44-11.62,19.4H181.8L170.18,90.2v23.14h-6.26V78h5.4l14,23.44L197.16,78h5.4l.05,35.37Z"/><path class="cls-31" d="M216,109.72q-4.09-4.11-4.09-11.79V78h6.56V97.68q0,10.39,9,10.4t9-10.4V78h6.46v20q0,7.68-4.06,11.79c-2.72,2.75-6.51,4.12-11.4,4.12S218.68,112.47,216,109.72Z"/><path class="cls-32" d="M255.07,112.68a16.4,16.4,0,0,1-6-3.08l2.27-5.1a17.89,17.89,0,0,0,5.33,2.8,19.48,19.48,0,0,0,6.34,1.09,10.83,10.83,0,0,0,5.88-1.27,3.82,3.82,0,0,0,1.95-3.33,3.22,3.22,0,0,0-1.09-2.5A7.53,7.53,0,0,0,267,99.75c-1.11-.37-2.63-.79-4.55-1.27a50,50,0,0,1-6.54-1.92,10.62,10.62,0,0,1-4.29-3,8.07,8.07,0,0,1-1.8-5.53,9.43,9.43,0,0,1,1.59-5.33,10.87,10.87,0,0,1,4.8-3.82A19.52,19.52,0,0,1,264,77.47a25.27,25.27,0,0,1,6.36.81,17.68,17.68,0,0,1,5.41,2.32l-2.07,5.1a20.42,20.42,0,0,0-4.85-2.07,18.23,18.23,0,0,0-4.9-.7c-2.59,0-4.52.43-5.79,1.31a4,4,0,0,0-1.89,3.48,3.15,3.15,0,0,0,1.09,2.48,7.8,7.8,0,0,0,2.75,1.52c1.11.37,2.63.79,4.55,1.26a48,48,0,0,1,6.46,1.89,11,11,0,0,1,4.32,3,7.89,7.89,0,0,1,1.79,5.45,9.32,9.32,0,0,1-1.59,5.31,10.84,10.84,0,0,1-4.82,3.79,19.69,19.69,0,0,1-7.88,1.41A27.18,27.18,0,0,1,255.07,112.68Z"/><path class="cls-33" d="M283.79,78h6.57v35.37h-6.57Z"/><path class="cls-34" d="M306.6,111.49a17.26,17.26,0,0,1-6.77-6.49,18,18,0,0,1-2.45-9.34,17.79,17.79,0,0,1,2.48-9.35,17.45,17.45,0,0,1,6.79-6.49,19.86,19.86,0,0,1,9.67-2.35A20.25,20.25,0,0,1,324.26,79a16.29,16.29,0,0,1,6.06,4.4l-4.25,4a12.36,12.36,0,0,0-9.44-4.14,13.25,13.25,0,0,0-6.52,1.59,11.45,11.45,0,0,0-4.5,4.42,13.59,13.59,0,0,0,0,12.83,11.45,11.45,0,0,0,4.5,4.42,13.25,13.25,0,0,0,6.52,1.59,12.27,12.27,0,0,0,9.44-4.19l4.25,4a16.13,16.13,0,0,1-6.09,4.4,20.38,20.38,0,0,1-8,1.51A19.86,19.86,0,0,1,306.6,111.49Z"/><path class="cls-35" d="M382,78v35.37h-6.57V98.18H357.14v15.16h-6.57V78h6.57v14.6h18.29V78Z"/><path class="cls-36" d="M395.28,109.72q-4.09-4.11-4.09-11.79V78h6.57V97.68q0,10.39,9,10.4t8.94-10.4V78h6.47v20q0,7.68-4.07,11.79t-11.39,4.12Q399.37,113.84,395.28,109.72Z"/><path class="cls-37" d="M461.05,98.16a8.9,8.9,0,0,1,1.72,5.58,8.2,8.2,0,0,1-3.53,7.1q-3.54,2.49-10.31,2.5H431.35V78h16.57q6.27,0,9.65,2.45A7.9,7.9,0,0,1,461,87.17a8.86,8.86,0,0,1-1.21,4.65A8.37,8.37,0,0,1,456.41,95,9.3,9.3,0,0,1,461.05,98.16Zm-23.13-15v9.75h9.29a9.41,9.41,0,0,0,5.28-1.24,4.5,4.5,0,0,0,0-7.27,9.41,9.41,0,0,0-5.28-1.24Zm18.23,20q0-5.1-7.62-5.1H437.92v10.2h10.61Q456.15,108.18,456.15,103.08Z"/></g></g></svg>