<svg xmlns="http://www.w3.org/2000/svg" xmlns:xlink="http://www.w3.org/1999/xlink" width="462.836" height="140.038" viewBox="0 0 462.836 140.038">
  <defs>
    <linearGradient id="linear-gradient" x1="0.135" y1="0.87" x2="0.884" y2="0.111" gradientUnits="objectBoundingBox">
      <stop offset="0" stop-color="#015c7b"/>
      <stop offset="1" stop-color="#013c4f"/>
    </linearGradient>
    <clipPath id="clip-path">
      <path id="Path_952" data-name="Path 952" d="M70,5.36A64.64,64.64,0,1,0,134.64,70,64.64,64.64,0,0,0,70,5.36Z" fill="url(#linear-gradient)"/>
    </clipPath>
    <linearGradient id="linear-gradient-4" x1="0.103" y1="0.911" x2="0.894" y2="0.093" gradientUnits="objectBoundingBox">
      <stop offset="0" stop-color="#008da8"/>
      <stop offset="1" stop-color="#006f8d"/>
    </linearGradient>
    <linearGradient id="linear-gradient-5" x1="-0.847" y1="0.706" x2="13.638" y2="-1.503" gradientUnits="objectBoundingBox">
      <stop offset="0" stop-color="#defffd"/>
      <stop offset="0.22" stop-color="#dafffd"/>
      <stop offset="0.42" stop-color="#cffffd"/>
      <stop offset="0.62" stop-color="#bcfffd"/>
      <stop offset="0.82" stop-color="#a1fffd"/>
      <stop offset="1" stop-color="#82fffd"/>
    </linearGradient>
    <linearGradient id="linear-gradient-6" x1="-13.534" y1="4.64" x2="0.951" y2="0.351" xlink:href="#linear-gradient-5"/>
    <linearGradient id="linear-gradient-7" x1="-12.792" y1="5.772" x2="1.692" y2="0.05" xlink:href="#linear-gradient-5"/>
    <linearGradient id="linear-gradient-8" x1="-10.625" y1="3.78" x2="3.858" y2="-0.509" xlink:href="#linear-gradient-5"/>
    <linearGradient id="linear-gradient-9" x1="-1.952" y1="0.858" x2="12.564" y2="-1.261" xlink:href="#linear-gradient-5"/>
    <linearGradient id="linear-gradient-10" x1="-3.914" y1="1.078" x2="10.571" y2="-0.815" xlink:href="#linear-gradient-5"/>
    <linearGradient id="linear-gradient-11" x1="-5.364" y1="0.987" x2="9.153" y2="-0.218" xlink:href="#linear-gradient-5"/>
    <linearGradient id="linear-gradient-12" x1="-7.041" y1="1.335" x2="7.443" y2="-0.269" xlink:href="#linear-gradient-5"/>
    <linearGradient id="linear-gradient-13" x1="-8.121" y1="1.585" x2="6.364" y2="-0.239" xlink:href="#linear-gradient-5"/>
    <linearGradient id="linear-gradient-14" x1="-11.027" y1="1.951" x2="3.458" y2="0.127" xlink:href="#linear-gradient-5"/>
    <linearGradient id="linear-gradient-15" x1="-12.771" y1="1.979" x2="1.618" y2="0.376" xlink:href="#linear-gradient-5"/>
    <linearGradient id="linear-gradient-16" x1="-14.129" y1="1.714" x2="0.388" y2="0.509" xlink:href="#linear-gradient-5"/>
    <linearGradient id="linear-gradient-17" x1="-15.581" y1="2.602" x2="-1.097" y2="0.709" xlink:href="#linear-gradient-5"/>
    <linearGradient id="linear-gradient-18" x1="-16.571" y1="2.992" x2="-2.054" y2="0.873" xlink:href="#linear-gradient-5"/>
    <linearGradient id="linear-gradient-19" x1="-18.353" y1="3.4" x2="-3.871" y2="1.176" xlink:href="#linear-gradient-5"/>
    <linearGradient id="linear-gradient-20" x1="0.27" y1="0.632" x2="0.823" y2="0.076" gradientUnits="objectBoundingBox">
      <stop offset="0" stop-color="#b71d50"/>
      <stop offset="0.48" stop-color="#8e163c"/>
      <stop offset="1" stop-color="#640e27"/>
    </linearGradient>
    <linearGradient id="linear-gradient-21" x1="1.575" y1="0.228" x2="12.487" y2="-2.756" xlink:href="#linear-gradient-4"/>
    <linearGradient id="linear-gradient-22" x1="0.496" y1="0.501" x2="11.924" y2="-2.573" xlink:href="#linear-gradient-4"/>
    <linearGradient id="linear-gradient-23" x1="-0.727" y1="0.816" x2="11.162" y2="-2.252" xlink:href="#linear-gradient-4"/>
    <linearGradient id="linear-gradient-24" x1="-8.647" y1="1.014" x2="46.043" y2="-2.06" xlink:href="#linear-gradient-4"/>
    <linearGradient id="linear-gradient-25" x1="-2.398" y1="1.187" x2="10.287" y2="-1.808" xlink:href="#linear-gradient-4"/>
    <linearGradient id="linear-gradient-26" x1="-3.184" y1="1.396" x2="8.779" y2="-1.678" xlink:href="#linear-gradient-4"/>
    <linearGradient id="linear-gradient-27" x1="-19.504" y1="1.624" x2="35.187" y2="-1.449" xlink:href="#linear-gradient-4"/>
    <linearGradient id="linear-gradient-28" x1="-17.171" y1="2.954" x2="37.519" y2="-4.644" xlink:href="#linear-gradient-4"/>
    <linearGradient id="linear-gradient-29" x1="-3.551" y1="1.898" x2="5.809" y2="-1.175" xlink:href="#linear-gradient-4"/>
    <linearGradient id="linear-gradient-30" x1="-5.614" y1="2.145" x2="5.811" y2="-0.929" xlink:href="#linear-gradient-4"/>
    <linearGradient id="linear-gradient-31" x1="1.785" y1="0.074" x2="11.68" y2="-3.202" xlink:href="#linear-gradient-4"/>
    <linearGradient id="linear-gradient-32" x1="0.785" y1="0.372" x2="13.126" y2="-2.855" xlink:href="#linear-gradient-4"/>
    <linearGradient id="linear-gradient-33" x1="-0.332" y1="0.698" x2="13.258" y2="-2.488" xlink:href="#linear-gradient-4"/>
    <linearGradient id="linear-gradient-34" x1="-6.405" y1="0.887" x2="51.864" y2="-2.389" xlink:href="#linear-gradient-4"/>
    <linearGradient id="linear-gradient-35" x1="-1.615" y1="1.101" x2="10.006" y2="-2.086" xlink:href="#linear-gradient-4"/>
    <linearGradient id="linear-gradient-36" x1="-3.252" y1="1.508" x2="8.928" y2="-1.768" xlink:href="#linear-gradient-4"/>
    <linearGradient id="linear-gradient-37" x1="-4.515" y1="1.757" x2="7.842" y2="-1.47" xlink:href="#linear-gradient-4"/>
    <linearGradient id="linear-gradient-38" x1="-5.62" y1="2.105" x2="6.561" y2="-1.174" xlink:href="#linear-gradient-4"/>
  </defs>
  <g id="Layer_2" data-name="Layer 2" transform="translate(0.059 0.038)">
    <g id="Layer_1" data-name="Layer 1">
      <path id="Path_950" data-name="Path 950" d="M70,5.36A64.64,64.64,0,1,0,134.64,70,64.64,64.64,0,0,0,70,5.36Z" fill="url(#linear-gradient)"/>
      <g id="Group_1535" data-name="Group 1535" clip-path="url(#clip-path)">
        <path id="Path_951" data-name="Path 951" d="M70,5.36A64.64,64.64,0,1,0,134.64,70,64.64,64.64,0,0,0,70,5.36Z" fill="url(#linear-gradient)"/>
      </g>
      <path id="Path_953" data-name="Path 953" d="M70,140a69.977,69.977,0,1,1,27.25-5.5A70,70,0,0,1,70,140ZM70,3.56A66.44,66.44,0,1,0,136.44,70,66.44,66.44,0,0,0,70,3.56Z" fill="url(#linear-gradient-4)"/>
      <path id="Path_954" data-name="Path 954" d="M17.22,84a2.3,2.3,0,1,1-4.59,0V70.62a2.3,2.3,0,1,1,4.59,0Z" fill="url(#linear-gradient-5)"/>
      <path id="Path_955" data-name="Path 955" d="M76.85,49.18a2.3,2.3,0,0,1,4.59,0V54a2.3,2.3,0,1,1-4.59,0Z" fill="url(#linear-gradient-6)"/>
      <path id="Path_956" data-name="Path 956" d="M67.75,43.06a2.3,2.3,0,1,1,4.59,0v2.46a2.3,2.3,0,0,1-4.59,0Z" fill="url(#linear-gradient-7)"/>
      <path id="Path_957" data-name="Path 957" d="M58.56,49.18a2.3,2.3,0,0,1,4.59,0V54a2.3,2.3,0,1,1-4.59,0Z" fill="url(#linear-gradient-8)"/>
      <path id="Path_958" data-name="Path 958" d="M26.41,88.45a2.3,2.3,0,0,1-4.59,0V73.68a2.3,2.3,0,0,1,4.59,0Z" fill="url(#linear-gradient-9)"/>
      <path id="Path_959" data-name="Path 959" d="M35.59,84A2.3,2.3,0,1,1,31,84V67.56a2.3,2.3,0,1,1,4.59,0Z" fill="url(#linear-gradient-10)"/>
      <path id="Path_960" data-name="Path 960" d="M44.78,90.66a2.3,2.3,0,0,1-4.59,0V61.43a2.3,2.3,0,0,1,4.59,0Z" fill="url(#linear-gradient-11)"/>
      <path id="Path_961" data-name="Path 961" d="M54,84a2.3,2.3,0,1,1-4.6,0V63.4a2.3,2.3,0,0,1,4.6,0Z" fill="url(#linear-gradient-12)"/>
      <path id="Path_962" data-name="Path 962" d="M63.15,86.24a2.3,2.3,0,1,1-4.59,0V69a2.3,2.3,0,1,1,4.59,0Z" fill="url(#linear-gradient-13)"/>
      <path id="Path_963" data-name="Path 963" d="M81.44,86.24a2.3,2.3,0,1,1-4.59,0V69a2.3,2.3,0,1,1,4.59,0Z" fill="url(#linear-gradient-14)"/>
      <path id="Path_964" data-name="Path 964" d="M90.63,84A2.315,2.315,0,0,1,86,84V63.4a2.3,2.3,0,0,1,4.6,0Z" fill="url(#linear-gradient-15)"/>
      <path id="Path_965" data-name="Path 965" d="M99.81,90.66a2.3,2.3,0,0,1-4.59,0V61.43a2.3,2.3,0,0,1,4.59,0Z" fill="url(#linear-gradient-16)"/>
      <path id="Path_966" data-name="Path 966" d="M109,84a2.3,2.3,0,1,1-4.59,0V67.56a2.3,2.3,0,1,1,4.59,0Z" fill="url(#linear-gradient-17)"/>
      <path id="Path_967" data-name="Path 967" d="M118.18,88.45a2.3,2.3,0,0,1-4.59,0V73.68a2.3,2.3,0,0,1,4.59,0Z" fill="url(#linear-gradient-18)"/>
      <path id="Path_968" data-name="Path 968" d="M125.07,86.33a2.3,2.3,0,0,1-2.29-2.3V70.62a2.3,2.3,0,1,1,4.59,0V84a2.3,2.3,0,0,1-2.3,2.33Z" fill="url(#linear-gradient-19)"/>
      <path id="Path_969" data-name="Path 969" d="M79.23,64.44H73V92.86a3,3,0,0,1-6,0V64.44H60.86a3,3,0,0,1,0-5.94h6.21V52.4a3,3,0,1,1,6,0v6.1h6.21a3,3,0,0,1,0,5.94Z" fill="url(#linear-gradient-20)"/>
      <path id="Path_970" data-name="Path 970" d="M173.75,62.44a18.49,18.49,0,0,1-7.22-6.92,19.24,19.24,0,0,1-2.61-10,19.07,19.07,0,0,1,2.63-10,18.71,18.71,0,0,1,7.25-6.92,21.24,21.24,0,0,1,10.32-2.5,21.64,21.64,0,0,1,8.45,1.61A17.28,17.28,0,0,1,199,32.46l-4.53,4.26A13.17,13.17,0,0,0,184.4,32.3a14,14,0,0,0-6.95,1.7,12.12,12.12,0,0,0-4.79,4.71,14.39,14.39,0,0,0,0,13.68,12.21,12.21,0,0,0,4.79,4.72,14.13,14.13,0,0,0,6.95,1.69,13.11,13.11,0,0,0,10.07-4.47L199,58.64a17.27,17.27,0,0,1-6.49,4.69,21.88,21.88,0,0,1-8.49,1.61,21.2,21.2,0,0,1-10.27-2.5Z" fill="url(#linear-gradient-21)"/>
      <path id="Path_971" data-name="Path 971" d="M239.28,26.7V64.4h-7V48.24h-19.5V64.4h-7V26.7h7V42.26h19.5V26.7Z" fill="url(#linear-gradient-22)"/>
      <path id="Path_972" data-name="Path 972" d="M274.07,64.4l-7.7-11a12.85,12.85,0,0,1-1.45.06h-8.51v11h-7V26.7h15.52a21.06,21.06,0,0,1,8.54,1.61A12.38,12.38,0,0,1,279,33a13,13,0,0,1,2,7.11,12.81,12.81,0,0,1-2.07,7.33,12.37,12.37,0,0,1-6,4.57l8.68,12.39Zm-2.53-29.84c-1.58-1.29-3.89-1.94-7-1.94h-8.18v15h8.18c3.06,0,5.37-.65,7-2a6.85,6.85,0,0,0,2.37-5.58,6.75,6.75,0,0,0-2.37-5.48Z" fill="url(#linear-gradient-23)"/>
      <path id="Path_973" data-name="Path 973" d="M288.78,26.7h7V64.4h-7Z" fill="url(#linear-gradient-24)"/>
      <path id="Path_974" data-name="Path 974" d="M309.22,63.7a17.46,17.46,0,0,1-6.43-3.28L305.21,55a19.06,19.06,0,0,0,5.68,3,20.76,20.76,0,0,0,6.76,1.16c2.8,0,4.9-.45,6.28-1.35A4.08,4.08,0,0,0,326,54.22a3.41,3.41,0,0,0-1.16-2.66,8.22,8.22,0,0,0-2.93-1.65c-1.19-.39-2.8-.84-4.85-1.34a56.82,56.82,0,0,1-7-2,11.48,11.48,0,0,1-4.57-3.2,8.64,8.64,0,0,1-1.92-5.9,10.09,10.09,0,0,1,1.7-5.69,11.47,11.47,0,0,1,5.12-4.06,20.63,20.63,0,0,1,8.37-1.51,27.3,27.3,0,0,1,6.79.86,18.63,18.63,0,0,1,5.77,2.48l-2.21,5.44A21.89,21.89,0,0,0,324,32.73a19.49,19.49,0,0,0-5.23-.75c-2.77,0-4.82.46-6.17,1.4a4.32,4.32,0,0,0-2,3.71,3.36,3.36,0,0,0,1.16,2.64,8.29,8.29,0,0,0,2.94,1.62c1.18.39,2.8.84,4.84,1.35a50,50,0,0,1,6.9,2,11.85,11.85,0,0,1,4.61,3.2,8.49,8.49,0,0,1,1.91,5.82,9.92,9.92,0,0,1-1.7,5.65,11.52,11.52,0,0,1-5.14,4,20.87,20.87,0,0,1-8.41,1.51,28.62,28.62,0,0,1-8.49-1.18Z" fill="url(#linear-gradient-25)"/>
      <path id="Path_975" data-name="Path 975" d="M347,32.62H334.5V26.7h32v5.92H354V64.4h-7Z" fill="url(#linear-gradient-26)"/>
      <path id="Path_976" data-name="Path 976" d="M371.74,26.7h7V64.4h-7Z" fill="url(#linear-gradient-27)"/>
      <path id="Path_977" data-name="Path 977" d="M347,15.08h7V30.33h-7Z" fill="url(#linear-gradient-28)"/>
      <path id="Path_978" data-name="Path 978" d="M413.38,55.68H394.52L390.8,64.4h-7.21l17-37.7h6.9l17,37.7h-7.32Zm-2.32-5.5L404,33.7l-7.06,16.48Z" fill="url(#linear-gradient-29)"/>
      <path id="Path_979" data-name="Path 979" d="M462.77,26.7V64.4H457L436.2,38.87V64.4h-6.94V26.7H435l20.79,25.53V26.7Z" fill="url(#linear-gradient-30)"/>
      <path id="Path_980" data-name="Path 980" d="M196.4,113.34l-.05-23.44-11.62,19.4H181.8L170.18,90.2v23.14h-6.26V78h5.4l14,23.44L197.16,78h5.4l.05,35.37Z" fill="url(#linear-gradient-31)"/>
      <path id="Path_981" data-name="Path 981" d="M216,109.72q-4.09-4.11-4.09-11.79V78h6.56V97.68q0,10.39,9,10.4t9-10.4V78h6.46V98q0,7.68-4.06,11.79c-2.72,2.75-6.51,4.12-11.4,4.12S218.68,112.47,216,109.72Z" fill="url(#linear-gradient-32)"/>
      <path id="Path_982" data-name="Path 982" d="M255.07,112.68a16.4,16.4,0,0,1-6-3.08l2.27-5.1a17.89,17.89,0,0,0,5.33,2.8,19.48,19.48,0,0,0,6.34,1.09,10.83,10.83,0,0,0,5.88-1.27,3.82,3.82,0,0,0,1.95-3.33,3.22,3.22,0,0,0-1.09-2.5A7.53,7.53,0,0,0,267,99.75c-1.11-.37-2.63-.79-4.55-1.27a50,50,0,0,1-6.54-1.92,10.62,10.62,0,0,1-4.29-3,8.07,8.07,0,0,1-1.8-5.53,9.43,9.43,0,0,1,1.59-5.33,10.87,10.87,0,0,1,4.8-3.82A19.52,19.52,0,0,1,264,77.47a25.27,25.27,0,0,1,6.36.81,17.68,17.68,0,0,1,5.41,2.32l-2.07,5.1a20.419,20.419,0,0,0-4.85-2.07,18.23,18.23,0,0,0-4.9-.7c-2.59,0-4.52.43-5.79,1.31a4,4,0,0,0-1.89,3.48,3.15,3.15,0,0,0,1.09,2.48,7.8,7.8,0,0,0,2.75,1.52c1.11.37,2.63.79,4.55,1.26a48,48,0,0,1,6.46,1.89,11,11,0,0,1,4.32,3,7.89,7.89,0,0,1,1.79,5.45,9.32,9.32,0,0,1-1.59,5.31,10.84,10.84,0,0,1-4.82,3.79,19.69,19.69,0,0,1-7.88,1.41,27.18,27.18,0,0,1-7.87-1.15Z" fill="url(#linear-gradient-33)"/>
      <path id="Path_983" data-name="Path 983" d="M283.79,78h6.57v35.37h-6.57Z" fill="url(#linear-gradient-34)"/>
      <path id="Path_984" data-name="Path 984" d="M306.6,111.49a17.26,17.26,0,0,1-6.77-6.49,18,18,0,0,1-2.45-9.34,17.79,17.79,0,0,1,2.48-9.35,17.449,17.449,0,0,1,6.79-6.49,19.86,19.86,0,0,1,9.67-2.35A20.25,20.25,0,0,1,324.26,79a16.29,16.29,0,0,1,6.06,4.4l-4.25,4a12.36,12.36,0,0,0-9.44-4.14,13.25,13.25,0,0,0-6.52,1.59,11.45,11.45,0,0,0-4.5,4.42,13.59,13.59,0,0,0,0,12.83,11.45,11.45,0,0,0,4.5,4.42,13.25,13.25,0,0,0,6.52,1.59,12.27,12.27,0,0,0,9.44-4.19l4.25,4a16.13,16.13,0,0,1-6.09,4.4,20.38,20.38,0,0,1-8,1.51,19.86,19.86,0,0,1-9.63-2.34Z" fill="url(#linear-gradient-35)"/>
      <path id="Path_985" data-name="Path 985" d="M382,78v35.37h-6.57V98.18H357.14v15.16h-6.57V78h6.57V92.6h18.29V78Z" fill="url(#linear-gradient-36)"/>
      <path id="Path_986" data-name="Path 986" d="M395.28,109.72q-4.09-4.11-4.09-11.79V78h6.57V97.68q0,10.39,9,10.4t8.94-10.4V78h6.47V98q0,7.68-4.07,11.79t-11.39,4.12Q399.37,113.84,395.28,109.72Z" fill="url(#linear-gradient-37)"/>
      <path id="Path_987" data-name="Path 987" d="M461.05,98.16a8.9,8.9,0,0,1,1.72,5.58,8.2,8.2,0,0,1-3.53,7.1q-3.54,2.49-10.31,2.5H431.35V78h16.57q6.27,0,9.65,2.45A7.9,7.9,0,0,1,461,87.17a8.86,8.86,0,0,1-1.21,4.65A8.37,8.37,0,0,1,456.41,95a9.3,9.3,0,0,1,4.64,3.16Zm-23.13-15v9.75h9.29a9.41,9.41,0,0,0,5.28-1.24,4.5,4.5,0,0,0,0-7.27,9.41,9.41,0,0,0-5.28-1.24Zm18.23,20q0-5.1-7.62-5.1H437.92v10.2h10.61q7.62-.08,7.62-5.18Z" fill="url(#linear-gradient-38)"/>
    </g>
  </g>
</svg>
